<svg xmlns="http://www.w3.org/2000/svg" width="18.750" height="19.750" viewBox="0 0 18.750 19.750" fill="none">
  <path d="M 8.5 0 C 13.194 0 17 3.806 17 8.5 C 17 10.832 16.06 12.944 14.54 14.479 L 18.53 18.47 C 18.823 18.763 18.823 19.237 18.53 19.53 C 18.237 19.823 17.763 19.823 17.47 19.53 L 13.47 15.53 C 13.443 15.503 13.419 15.474 13.396 15.444 C 12.012 16.422 10.324 17 8.5 17 C 3.806 17 0 13.194 0 8.5 C 0 3.806 3.806 0 8.5 0 Z M 8.5 1.5 C 4.634 1.5 1.5 4.634 1.5 8.5 C 1.5 12.366 4.634 15.5 8.5 15.5 C 12.366 15.5 15.5 12.366 15.5 8.5 C 15.5 4.634 12.366 1.5 8.5 1.5 Z" fill="currentColor" fill-rule="evenodd"></path>
</svg>