<svg xmlns="http://www.w3.org/2000/svg" width="20" height="20" viewBox="0 0 20 20" fill="none">
  <path d="M 18.462 14.656 L 18.462 10.626 C 18.462 9.087 18.455 8.547 18.278 7.92 C 18.054 7.249 17.873 6.733 17.538 6.315 C 17.167 5.853 16.705 5.479 15.486 4.484 L 15.056 4.163 L 15.045 4.155 C 13.047 2.606 12.193 1.958 11.281 1.678 C 10.417 1.49 9.556 1.492 8.692 1.684 C 8.345 1.761 7.923 1.966 7.305 2.386 C 6.688 2.804 5.949 3.384 4.955 4.155 L 4.944 4.163 L 4.513 4.484 C 3.294 5.479 2.833 5.853 2.462 6.315 C 2.089 6.78 1.83 7.315 1.747 7.813 C 1.74 7.852 1.731 7.892 1.718 7.93 C 1.549 8.436 1.538 9.045 1.538 10.626 L 1.538 14.656 C 1.539 16.734 3.268 18.462 5.358 18.462 C 6.223 18.461 6.662 17.888 6.662 17.379 L 6.662 13.785 C 6.662 11.853 8.083 10.348 10.055 10.348 C 12.028 10.348 13.446 11.855 13.446 13.785 L 13.446 17.379 C 13.446 17.932 13.973 18.461 14.533 18.462 C 16.647 18.462 18.461 16.711 18.462 14.656 Z M 20 14.656 C 20 17.612 17.445 20 14.533 20 C 13.127 20 11.907 18.786 11.907 17.379 L 11.907 13.785 C 11.907 12.666 11.141 11.886 10.055 11.886 C 8.968 11.886 8.2 12.667 8.2 13.785 L 8.2 17.379 C 8.2 18.83 6.978 20 5.358 20 C 2.422 20 0 17.588 0 14.656 L 0 10.626 C 0 9.194 -0.007 8.289 0.241 7.502 C 0.385 6.713 0.773 5.962 1.262 5.353 C 1.763 4.729 2.39 4.232 3.56 3.277 C 3.568 3.27 3.577 3.264 3.586 3.257 L 4.022 2.931 C 4.99 2.18 5.776 1.564 6.441 1.113 C 7.106 0.662 7.722 0.322 8.358 0.181 C 9.314 -0.03 10.274 -0.057 11.231 0.102 L 11.642 0.181 L 11.695 0.195 C 12.956 0.573 14.068 1.45 15.978 2.931 L 16.414 3.257 L 16.44 3.277 C 17.61 4.232 18.237 4.729 18.738 5.353 C 19.141 5.855 19.385 6.424 19.571 6.943 L 19.742 7.442 L 19.752 7.474 C 20.006 8.362 20 9.134 20 10.626 L 20 14.656 Z" fill="currentColor" fill-rule="nonzero"></path>
</svg>